<svg xmlns="http://www.w3.org/2000/svg" fill="none" viewBox="0 0 36 36">
  <rect width="34.5" height="34.5" x="0.75" y="0.75" fill="#1DB248" rx="17.25"></rect>
  <rect width="34.5" height="34.5" x="0.75" y="0.75" stroke="#fff" stroke-width="1.5" rx="17.25"></rect>
  <path fill="#fff" fill-rule="evenodd" d="M7.604 20.058H6.297c-2.037 0-.557-4.124 1.159-4.124H9.52c.33 0 .914.058 1.202-.722L11.166 14h-2.83c-1.533 0-2.727.514-3.589 1.378-1.49 1.477-1.994 3.784-1.637 4.887.34 1.021 1.263 1.694 2.708 1.71l1.124.008h1.385l.34-.97c.252-.69-.314-.955-1.063-.955Zm15.903-1.71.427-1.319h-4.555c-.758 0-1.098.2-1.228.614l-.427 1.32h4.555c.758 0 1.097-.2 1.228-.614Zm-6.462 2.324-.427 1.32h4.555c.749 0 1.097-.2 1.228-.614l.427-1.32h-4.555c-.75 0-1.089.2-1.228.614Zm7.524-5.344.427-1.32h-4.555c-.757 0-1.097.2-1.228.614l-.427 1.32h4.555c.75 0 1.089-.2 1.229-.614Zm-6.88.265c-.191-1.228-.88-1.585-2.552-1.585H12.09l-1.777 4.955h1.124c.67 0 1.01.008 1.367-.905l.74-2.124h1.133c.966 0 .749 1.153.261 2.273-.435.988-1.193 1.86-2.108 1.86h-1.89c-.757 0-1.106.198-1.245.613L9.224 22h1.384l1.36-.008c1.201-.009 2.185-.091 3.335-1.08 1.22-1.053 2.63-3.758 2.386-5.319ZM33 14h-2.639l-2.482 2.515c-.287.29-.584.58-.87.92h-.027L28.219 14h-2.152l-2.9 7.992h2.151l.924-2.515.958-.772.757 2.274c.235.706.48 1.013 1.002 1.013h1.646l-1.69-4.465L33 14Z" clip-rule="evenodd"></path>
</svg>