<svg xmlns="http://www.w3.org/2000/svg" fill="none" viewBox="0 0 70 82">
  <g filter="url(#cdek-selected_svg__a)">
    <mask id="cdek-selected_svg__b" fill="#fff">
      <path fill-rule="evenodd" d="M46.674 59.727C58.01 55.116 66 43.99 66 31 66 13.88 52.12 0 35 0 17.88 0 4 13.88 4 31c0 12.991 7.99 24.116 19.326 28.727L35 74l11.674-14.273Z" clip-rule="evenodd"></path>
    </mask>
    <path fill="#1DB248" fill-rule="evenodd" d="M46.674 59.727C58.01 55.116 66 43.99 66 31 66 13.88 52.12 0 35 0 17.88 0 4 13.88 4 31c0 12.991 7.99 24.116 19.326 28.727L35 74l11.674-14.273Z" clip-rule="evenodd"></path>
    <path fill="#fff" d="m46.674 59.727-1.13-2.78-.708.289-.484.591 2.322 1.9Zm-23.348 0 2.322-1.9-.484-.591-.708-.288-1.13 2.779ZM35 74l-2.322 1.9L35 78.737l2.322-2.839L35 74Zm28-43c0 11.729-7.213 21.78-17.456 25.948l2.26 5.557C60.232 57.45 69 45.253 69 31h-6ZM35 3c15.464 0 28 12.536 28 28h6C69 12.222 53.778-3 35-3v6ZM7 31C7 15.536 19.536 3 35 3v-6C16.222-3 1 12.222 1 31h6Zm17.456 25.948C14.213 52.78 7 42.729 7 31H1c0 14.253 8.77 26.45 21.195 31.505l2.261-5.557ZM37.322 72.1 25.648 57.827l-4.645 3.799 11.675 14.273 4.644-3.798Zm7.03-14.274L32.678 72.101l4.644 3.798 11.675-14.273-4.645-3.799Z" mask="url(#cdek-selected_svg__b)"></path>
    <path fill="#fff" fill-rule="evenodd" d="M18.213 35.087h-2.047c-3.193 0-.873-6.187 1.815-6.187h3.233c.519 0 1.433.088 1.884-1.082L23.793 26H19.36c-2.402 0-4.271.772-5.622 2.067-2.333 2.215-3.124 5.676-2.565 7.331.532 1.531 1.978 2.54 4.243 2.565l1.76.012h2.17l.532-1.456c.396-1.033-.491-1.432-1.664-1.432Zm24.914-2.564.67-1.98H36.66c-1.187 0-1.72.3-1.924.922l-.668 1.98h7.136c1.187 0 1.719-.3 1.923-.922Zm-10.124 3.485-.668 1.98h7.136c1.173 0 1.719-.3 1.924-.922l.668-1.979h-7.136c-1.173 0-1.705.299-1.924.921Zm11.79-8.016.668-1.98h-7.136c-1.187 0-1.72.3-1.924.921l-.669 1.98h7.136c1.174 0 1.706-.299 1.924-.921Zm-10.78.398c-.3-1.842-1.378-2.378-3.998-2.378H25.24l-2.784 7.432h1.76c1.05 0 1.583.012 2.142-1.357l1.16-3.187h1.774c1.515 0 1.173 1.73.41 3.411-.683 1.482-1.87 2.788-3.303 2.788h-2.96c-1.188 0-1.733.3-1.952.922L20.751 38h2.169l2.128-.013c1.883-.012 3.425-.136 5.227-1.618 1.91-1.58 4.12-5.639 3.738-7.979ZM58 26h-4.134l-3.889 3.772c-.45.435-.914.871-1.364 1.382h-.041L50.509 26h-3.37l-4.544 11.987h3.37l1.447-3.771 1.5-1.158 1.188 3.41c.368 1.06.75 1.52 1.569 1.52h2.579L51.6 31.29 58 26Z" clip-rule="evenodd"></path>
  </g>
  <defs>
    <filter id="cdek-selected_svg__a" width="70" height="82" x="0" y="0" color-interpolation-filters="sRGB" filterUnits="userSpaceOnUse">
      <feFlood flood-opacity="0" result="BackgroundImageFix"></feFlood>
      <feColorMatrix in="SourceAlpha" result="hardAlpha" values="0 0 0 0 0 0 0 0 0 0 0 0 0 0 0 0 0 0 127 0"></feColorMatrix>
      <feOffset dy="4"></feOffset>
      <feGaussianBlur stdDeviation="2"></feGaussianBlur>
      <feComposite in2="hardAlpha" operator="out"></feComposite>
      <feColorMatrix values="0 0 0 0 0 0 0 0 0 0 0 0 0 0 0 0 0 0 0.25 0"></feColorMatrix>
      <feBlend in2="BackgroundImageFix" result="effect1_dropShadow_11423_4048"></feBlend>
      <feBlend in="SourceGraphic" in2="effect1_dropShadow_11423_4048" result="shape"></feBlend>
    </filter>
  </defs>
</svg>